name rise30.3154peak39.0474fall46.5389.mot
datacolumns 19
datarows 18
range 21.06325500000000 21.09158600000000
endheader
time	ground_force1_vx	ground_force1_vy	ground_force1_vz	ground_force1_px	ground_force1_py	ground_force1_pz	ground_force2_vx	ground_force2_vy	ground_force2_vz	ground_force2_px	ground_force2_py	ground_force2_pz	ground_torque1_x	ground_torque1_y	ground_torque1_z	ground_torque2_x	ground_torque2_y	ground_torque2_z	
21.06325500000000	3.92222200000000	696.39634300000000	34.09579000000000	0.24206100000000	0.00000000000000	0.10615400000000	0.00000000000000	0.00000000000000	0.00000000000000	0.00000000000000	0.00000000000000	0.00000000000000	0.00000000000000	13.52242900000000	0.00000000000000	0.00000000000000	0.00000000000000	0.00000000000000	
21.06493100000000	3.48035700000000	696.10554300000001	34.13170500000000	0.24060600000000	0.00000000000000	0.10619400000000	0.00000000000000	0.00000000000000	0.00000000000000	0.00000000000000	0.00000000000000	0.00000000000000	0.00000000000000	13.56520600000000	0.00000000000000	0.00000000000000	0.00000000000000	0.00000000000000	
21.06658600000000	3.02954900000000	695.87418300000002	34.17139300000000	0.23917800000000	0.00000000000000	0.10623200000000	0.00000000000000	0.00000000000000	0.00000000000000	0.00000000000000	0.00000000000000	0.00000000000000	0.00000000000000	13.61354000000000	0.00000000000000	0.00000000000000	0.00000000000000	0.00000000000000	
21.06825300000000	2.56940800000000	695.70370200000002	34.21465900000000	0.23778000000000	0.00000000000000	0.10626800000000	0.00000000000000	0.00000000000000	0.00000000000000	0.00000000000000	0.00000000000000	0.00000000000000	0.00000000000000	13.66738100000000	0.00000000000000	0.00000000000000	0.00000000000000	0.00000000000000	
21.06992000000000	2.09956200000000	695.59556599999996	34.26132700000000	0.23641200000000	0.00000000000000	0.10630000000000	0.00000000000000	0.00000000000000	0.00000000000000	0.00000000000000	0.00000000000000	0.00000000000000	0.00000000000000	13.72668000000000	0.00000000000000	0.00000000000000	0.00000000000000	0.00000000000000	
21.07159200000000	1.61965800000000	695.55126099999995	34.31123200000000	0.23507600000000	0.00000000000000	0.10633100000000	0.00000000000000	0.00000000000000	0.00000000000000	0.00000000000000	0.00000000000000	0.00000000000000	0.00000000000000	13.79138600000000	0.00000000000000	0.00000000000000	0.00000000000000	0.00000000000000	
21.07325400000000	1.12936500000000	695.57229400000006	34.36422800000000	0.23377100000000	0.00000000000000	0.10635800000000	0.00000000000000	0.00000000000000	0.00000000000000	0.00000000000000	0.00000000000000	0.00000000000000	0.00000000000000	13.86144900000000	0.00000000000000	0.00000000000000	0.00000000000000	0.00000000000000	
21.07492400000000	0.62837100000000	695.66018199999996	34.42018500000000	0.23250000000000	0.00000000000000	0.10638300000000	0.00000000000000	0.00000000000000	0.00000000000000	0.00000000000000	0.00000000000000	0.00000000000000	0.00000000000000	13.93681600000000	0.00000000000000	0.00000000000000	0.00000000000000	0.00000000000000	
21.07658800000000	0.11639300000000	695.81645400000002	34.47898700000000	0.23126100000000	0.00000000000000	0.10640400000000	0.00000000000000	0.00000000000000	0.00000000000000	0.00000000000000	0.00000000000000	0.00000000000000	0.00000000000000	14.01743500000000	0.00000000000000	0.00000000000000	0.00000000000000	0.00000000000000	
21.07825300000000	-0.40683200000000	696.04263600000002	34.54053400000000	0.23005600000000	0.00000000000000	0.10642300000000	0.00000000000000	0.00000000000000	0.00000000000000	0.00000000000000	0.00000000000000	0.00000000000000	0.00000000000000	14.10325100000000	0.00000000000000	0.00000000000000	0.00000000000000	0.00000000000000	
21.07992000000000	-0.94153700000000	696.34025199999996	34.60474400000000	0.22888400000000	0.00000000000000	0.10643900000000	0.00000000000000	0.00000000000000	0.00000000000000	0.00000000000000	0.00000000000000	0.00000000000000	0.00000000000000	14.19420900000000	0.00000000000000	0.00000000000000	0.00000000000000	0.00000000000000	
21.08159300000000	-1.48793100000000	696.71081100000004	34.67154800000000	0.22774600000000	0.00000000000000	0.10645200000000	0.00000000000000	0.00000000000000	0.00000000000000	0.00000000000000	0.00000000000000	0.00000000000000	0.00000000000000	14.29025000000000	0.00000000000000	0.00000000000000	0.00000000000000	0.00000000000000	
21.08325900000000	-2.04619200000000	697.15580299999999	34.74089200000000	0.22664100000000	0.00000000000000	0.10646200000000	0.00000000000000	0.00000000000000	0.00000000000000	0.00000000000000	0.00000000000000	0.00000000000000	0.00000000000000	14.39131200000000	0.00000000000000	0.00000000000000	0.00000000000000	0.00000000000000	
21.08492500000000	-2.61647000000000	697.67668400000002	34.81273800000000	0.22556900000000	0.00000000000000	0.10646900000000	0.00000000000000	0.00000000000000	0.00000000000000	0.00000000000000	0.00000000000000	0.00000000000000	0.00000000000000	14.49733300000000	0.00000000000000	0.00000000000000	0.00000000000000	0.00000000000000	
21.08659000000000	-3.19888100000000	698.27487199999996	34.88706200000000	0.22452900000000	0.00000000000000	0.10647400000000	0.00000000000000	0.00000000000000	0.00000000000000	0.00000000000000	0.00000000000000	0.00000000000000	0.00000000000000	14.60824500000000	0.00000000000000	0.00000000000000	0.00000000000000	0.00000000000000	
21.08825500000000	-3.79351300000000	698.95173699999998	34.96385400000000	0.22352100000000	0.00000000000000	0.10647600000000	0.00000000000000	0.00000000000000	0.00000000000000	0.00000000000000	0.00000000000000	0.00000000000000	0.00000000000000	14.72397700000000	0.00000000000000	0.00000000000000	0.00000000000000	0.00000000000000	
21.08992400000000	-4.40041900000000	699.70858699999997	35.04311600000000	0.22254500000000	0.00000000000000	0.10647500000000	0.00000000000000	0.00000000000000	0.00000000000000	0.00000000000000	0.00000000000000	0.00000000000000	0.00000000000000	14.84445400000000	0.00000000000000	0.00000000000000	0.00000000000000	0.00000000000000	
21.09158600000000	-5.01961700000000	700.54665699999998	35.12486600000000	0.22159900000000	0.00000000000000	0.10647100000000	0.00000000000000	0.00000000000000	0.00000000000000	0.00000000000000	0.00000000000000	0.00000000000000	0.00000000000000	14.96959800000000	0.00000000000000	0.00000000000000	0.00000000000000	0.00000000000000	
